<svg xmlns="http://www.w3.org/2000/svg" viewBox="0 0 800 500" width="800" height="500" role="img">
<defs>
  <linearGradient id="foil-rev-r4" x1="0" y1="0" x2="1" y2="1">
    <stop offset="0%" stop-color="#9C7A2E"/><stop offset="20%" stop-color="#D8B45F"/><stop offset="38%" stop-color="#F5E7BC"/><stop offset="55%" stop-color="#C9A34C"/><stop offset="74%" stop-color="#E8D08A"/><stop offset="100%" stop-color="#A8842F"/>
  </linearGradient>
  <linearGradient id="bg-rev-r4" x1="0" y1="0" x2="0.3" y2="1">
    <stop offset="0%" stop-color="#F4EBE0"/><stop offset="100%" stop-color="#E6D7C3"/>
  </linearGradient>
  <radialGradient id="glow-rev-r4" cx="50%" cy="42%" r="58%">
    <stop offset="0%" stop-color="#ffffff" stop-opacity="0.34"/>
    <stop offset="100%" stop-color="#ffffff" stop-opacity="0"/>
  </radialGradient>
</defs>
<rect width="800" height="500" fill="url(#bg-rev-r4)"/>
<ellipse cx="400" cy="510" rx="600" ry="210" fill="#EFDFB8" opacity="0.55"/>
<circle cx="395" cy="23" r="2.6" fill="#B08D3F" opacity="0.24"/><circle cx="317" cy="50" r="1.3" fill="#B08D3F" opacity="0.21"/><circle cx="22" cy="129" r="1.8" fill="#B08D3F" opacity="0.22"/><circle cx="326" cy="368" r="1.4" fill="#B08D3F" opacity="0.24"/><circle cx="794" cy="496" r="3.0" fill="#B08D3F" opacity="0.21"/><circle cx="5" cy="7" r="2.5" fill="#B08D3F" opacity="0.30"/><circle cx="198" cy="425" r="1.3" fill="#B08D3F" opacity="0.18"/><circle cx="137" cy="49" r="1.7" fill="#B08D3F" opacity="0.15"/><circle cx="140" cy="392" r="1.5" fill="#B08D3F" opacity="0.37"/><circle cx="582" cy="92" r="3.2" fill="#B08D3F" opacity="0.21"/><circle cx="237" cy="307" r="3.0" fill="#B08D3F" opacity="0.30"/><circle cx="688" cy="337" r="1.3" fill="#B08D3F" opacity="0.29"/><circle cx="695" cy="416" r="3.0" fill="#B08D3F" opacity="0.31"/><circle cx="695" cy="383" r="2.0" fill="#B08D3F" opacity="0.26"/><circle cx="581" cy="33" r="1.8" fill="#B08D3F" opacity="0.13"/><circle cx="6" cy="149" r="2.9" fill="#B08D3F" opacity="0.29"/>
<g opacity="0.5">
  <path d="M0 410 Q224.00000000000003 350, 416 420 T800 380" fill="none" stroke="url(#foil-rev-r4)" stroke-width="2.4"/>
  <path d="M0 440 Q240 390, 432 450 T800 415" fill="none" stroke="url(#foil-rev-r4)" stroke-width="1.2" opacity="0.6"/>
</g>
<g transform="translate(160 260) rotate(-9)">
      <rect x="-55" y="-73" width="118" height="162" rx="8" fill="#241F1B" opacity="0.13"/>
      <rect x="-59" y="-81" width="118" height="162" rx="8" fill="#FBF8F4"/>
      <rect x="-50" y="-72" width="100" height="144" rx="4" fill="none" stroke="url(#foil-rev-r4)" stroke-width="1.1"/>
      <path d="M0.00 -45.44L4.21 -29.60L18.38 -37.82L10.16 -23.65L26.00 -19.44L10.16 -15.23L18.38 -1.06L4.21 -9.28L0.00 6.56L-4.21 -9.28L-18.38 -1.06L-10.16 -15.23L-26.00 -19.44L-10.16 -23.65L-18.38 -37.82L-4.21 -29.60Z" fill="none" stroke="url(#foil-rev-r4)" stroke-width="1.6"/>
      <path d="M10.16 -15.23L4.21 -9.28L-4.21 -9.28L-10.16 -15.23L-10.16 -23.65L-4.21 -29.60L4.21 -29.60L10.16 -23.65Z" fill="url(#foil-rev-r4)" opacity="0.85"/>
      <g stroke="#0E4C41" stroke-width="2" opacity="0.32" stroke-linecap="round">
        <path d="M-25.96 29.16 H25.96"/>
        <path d="M-16.520000000000003 43.74 H16.520000000000003"/>
      </g>
    </g><g transform="translate(352 230) rotate(4)">
      <rect x="-62.08000000000001" y="-82.72000000000001" width="132.16000000000003" height="181.44000000000003" rx="8" fill="#241F1B" opacity="0.13"/>
      <rect x="-66.08000000000001" y="-90.72000000000001" width="132.16000000000003" height="181.44000000000003" rx="8" fill="#FBF3F1"/>
      <rect x="-57.08000000000001" y="-81.72000000000001" width="114.16000000000003" height="163.44000000000003" rx="4" fill="none" stroke="url(#foil-rev-r4)" stroke-width="1.1"/>
      <path d="M0.00 -50.89L4.71 -33.15L20.59 -42.36L11.38 -26.49L29.12 -21.77L11.38 -17.06L20.59 -1.18L4.71 -10.39L0.00 7.35L-4.71 -10.39L-20.59 -1.18L-11.38 -17.06L-29.12 -21.77L-11.38 -26.49L-20.59 -42.36L-4.71 -33.15Z" fill="none" stroke="url(#foil-rev-r4)" stroke-width="1.6"/>
      <path d="M11.38 -17.06L4.71 -10.39L-4.71 -10.39L-11.38 -17.06L-11.38 -26.49L-4.71 -33.15L4.71 -33.15L11.38 -26.49Z" fill="url(#foil-rev-r4)" opacity="0.85"/>
      <g stroke="#9E5C67" stroke-width="2" opacity="0.32" stroke-linecap="round">
        <path d="M-29.075200000000006 32.659200000000006 H29.075200000000006"/>
        <path d="M-18.502400000000005 48.98880000000001 H18.502400000000005"/>
      </g>
    </g><g transform="translate(544 270) rotate(12)">
      <rect x="-51.459999999999994" y="-68.14" width="110.91999999999999" height="152.28" rx="8" fill="#241F1B" opacity="0.13"/>
      <rect x="-55.459999999999994" y="-76.14" width="110.91999999999999" height="152.28" rx="8" fill="#17304F"/>
      <rect x="-46.459999999999994" y="-67.14" width="92.91999999999999" height="134.28" rx="4" fill="none" stroke="url(#foil-rev-r4)" stroke-width="1.1"/>
      <path d="M0.00 -42.71L3.96 -27.83L17.28 -35.56L9.55 -22.23L24.44 -18.27L9.55 -14.32L17.28 -0.99L3.96 -8.72L0.00 6.17L-3.96 -8.72L-17.28 -0.99L-9.55 -14.32L-24.44 -18.27L-9.55 -22.23L-17.28 -35.56L-3.96 -27.83Z" fill="none" stroke="url(#foil-rev-r4)" stroke-width="1.6"/>
      <path d="M9.55 -14.32L3.96 -8.72L-3.96 -8.72L-9.55 -14.32L-9.55 -22.23L-3.96 -27.83L3.96 -27.83L9.55 -22.23Z" fill="url(#foil-rev-r4)" opacity="0.85"/>
      <g stroke="#EFDFB8" stroke-width="2" opacity="0.32" stroke-linecap="round">
        <path d="M-24.402399999999997 27.4104 H24.402399999999997"/>
        <path d="M-15.5288 41.1156 H15.5288"/>
      </g>
    </g>
<rect width="800" height="500" fill="url(#glow-rev-r4)"/>
</svg>