<svg xmlns="http://www.w3.org/2000/svg" viewBox="0 0 560 560" width="560" height="560" role="img">
<defs>
  <linearGradient id="ribbon-sq-corporate-navy" x1="0" y1="0" x2="1" y2="1">
    <stop offset="0%" stop-color="#C7D2F3"/>
    <stop offset="52%" stop-color="#F8A9C6"/>
    <stop offset="100%" stop-color="#9EE0B4"/>
  </linearGradient>
  <linearGradient id="bg-sq-corporate-navy" x1="0" y1="0" x2="0.3" y2="1">
    <stop offset="0%" stop-color="#3E478C"/><stop offset="100%" stop-color="#2A3168"/>
  </linearGradient>
  <radialGradient id="glow-sq-corporate-navy" cx="50%" cy="40%" r="60%">
    <stop offset="0%" stop-color="#ffffff" stop-opacity="0.30"/>
    <stop offset="100%" stop-color="#ffffff" stop-opacity="0"/>
  </radialGradient>
</defs>
<defs>
  <pattern id="vine-sq-corporate-navy" width="104" height="104" patternUnits="userSpaceOnUse">
    <g fill="none" stroke="#9AA7DC" stroke-width="1.1" stroke-linecap="round">
      <path d="M0 78 Q26 44 52 78 T104 78"/>
      <path d="M0 26 Q26 -8 52 26 T104 26"/>
    </g>
    <path d="M0 0 Q7.20 -5.10 15.00 0 Q7.20 5.10 0 0Z"
    fill="#9AA7DC" opacity="0.55" transform="translate(26.00 60.00) rotate(-108.86)"/><path d="M0 0 Q7.20 -5.10 15.00 0 Q7.20 5.10 0 0Z"
    fill="#9AA7DC" opacity="0.55" transform="translate(78.00 60.00) rotate(-71.05)"/>
    <path d="M0 0 Q7.20 -5.10 15.00 0 Q7.20 5.10 0 0Z"
    fill="#9AA7DC" opacity="0.55" transform="translate(26.00 8.00) rotate(-108.86)"/><path d="M0 0 Q7.20 -5.10 15.00 0 Q7.20 5.10 0 0Z"
    fill="#9AA7DC" opacity="0.55" transform="translate(78.00 8.00) rotate(-71.05)"/>
    <circle cx="52" cy="52" r="2.6" fill="#9AA7DC" opacity="0.5"/>
  </pattern>
  <clipPath id="clip-sq-corporate-navy"><rect width="560" height="560"/></clipPath>
</defs>
<rect width="560" height="560" fill="url(#bg-sq-corporate-navy)"/>
<g opacity="0.1" clip-path="url(#clip-sq-corporate-navy)">
    <rect width="560" height="560" fill="url(#vine-sq-corporate-navy)"/>
  </g>
<rect width="560" height="560" fill="url(#glow-sq-corporate-navy)"/>
<path d="M172 110.79999999999998 V370.79999999999995" stroke="#9AA7DC" stroke-width="1" opacity="0.4" fill="none"/><path d="M150 132.79999999999998 H410" stroke="#9AA7DC" stroke-width="1" opacity="0.4" fill="none"/><path d="M226 110.79999999999998 V370.79999999999995" stroke="#9AA7DC" stroke-width="1" opacity="0.4" fill="none"/><path d="M150 186.79999999999998 H410" stroke="#9AA7DC" stroke-width="1" opacity="0.4" fill="none"/><path d="M280 110.79999999999998 V370.79999999999995" stroke="#9AA7DC" stroke-width="1" opacity="0.4" fill="none"/><path d="M150 240.79999999999998 H410" stroke="#9AA7DC" stroke-width="1" opacity="0.4" fill="none"/><path d="M334 110.79999999999998 V370.79999999999995" stroke="#9AA7DC" stroke-width="1" opacity="0.4" fill="none"/><path d="M150 294.79999999999995 H410" stroke="#9AA7DC" stroke-width="1" opacity="0.4" fill="none"/><path d="M388 110.79999999999998 V370.79999999999995" stroke="#9AA7DC" stroke-width="1" opacity="0.4" fill="none"/><path d="M150 348.79999999999995 H410" stroke="#9AA7DC" stroke-width="1" opacity="0.4" fill="none"/>
      <path d="M148.00 368.80 Q240.00 200.80 408.00 114.80"
    fill="none" stroke="url(#ribbon-sq-corporate-navy)" stroke-width="2.2" stroke-linecap="round"/><path d="M0 0 Q8.48 -6.01 17.67 0 Q8.48 6.01 0 0Z"
    fill="#9AA7DC" opacity="0.92" transform="translate(179.39 317.14) rotate(-7.38)"/><path d="M0 0 Q9.67 -6.85 20.14 0 Q9.67 6.85 0 0Z"
    fill="#9AA7DC" opacity="0.92" transform="translate(206.23 280.18) rotate(-100.60)"/><path d="M0 0 Q10.39 -7.36 21.64 0 Q10.39 7.36 0 0Z"
    fill="#9AA7DC" opacity="0.92" transform="translate(235.40 245.72) rotate(1.09)"/><path d="M0 0 Q10.54 -7.47 21.96 0 Q10.54 7.47 0 0Z"
    fill="#9AA7DC" opacity="0.92" transform="translate(266.87 213.75) rotate(-91.98)"/><path d="M0 0 Q10.10 -7.16 21.05 0 Q10.10 7.16 0 0Z"
    fill="#9AA7DC" opacity="0.92" transform="translate(300.65 184.28) rotate(9.77)"/><path d="M0 0 Q9.14 -6.47 19.04 0 Q9.14 6.47 0 0Z"
    fill="#9AA7DC" opacity="0.92" transform="translate(336.75 157.30) rotate(-83.33)"/><path d="M0 0 Q7.79 -5.52 16.22 0 Q7.79 5.52 0 0Z"
    fill="#9AA7DC" opacity="0.92" transform="translate(375.16 132.82) rotate(18.28)"/>
      <path d="M412.00 368.80 Q320.00 200.80 152.00 114.80"
    fill="none" stroke="url(#ribbon-sq-corporate-navy)" stroke-width="2.2" stroke-linecap="round"/><path d="M0 0 Q8.48 -6.01 17.67 0 Q8.48 6.01 0 0Z"
    fill="#9AA7DC" opacity="0.92" transform="translate(380.61 317.14) rotate(-75.22)"/><path d="M0 0 Q9.67 -6.85 20.14 0 Q9.67 6.85 0 0Z"
    fill="#9AA7DC" opacity="0.92" transform="translate(353.77 280.18) rotate(-176.81)"/><path d="M0 0 Q10.39 -7.36 21.64 0 Q10.39 7.36 0 0Z"
    fill="#9AA7DC" opacity="0.92" transform="translate(324.60 245.72) rotate(-83.69)"/><path d="M0 0 Q10.54 -7.47 21.96 0 Q10.54 7.47 0 0Z"
    fill="#9AA7DC" opacity="0.92" transform="translate(293.13 213.75) rotate(-185.43)"/><path d="M0 0 Q10.10 -7.16 21.05 0 Q10.10 7.16 0 0Z"
    fill="#9AA7DC" opacity="0.92" transform="translate(259.35 184.28) rotate(-92.37)"/><path d="M0 0 Q9.14 -6.47 19.04 0 Q9.14 6.47 0 0Z"
    fill="#9AA7DC" opacity="0.92" transform="translate(223.25 157.30) rotate(-194.07)"/><path d="M0 0 Q7.79 -5.52 16.22 0 Q7.79 5.52 0 0Z"
    fill="#9AA7DC" opacity="0.92" transform="translate(184.84 132.82) rotate(-100.87)"/>
      <ellipse cx="298.84" cy="246.63"
      rx="17.68" ry="14.28" fill="#F8A9C6" opacity="0.95"
      transform="rotate(17.19 298.84 246.63)"/><ellipse cx="284.37" cy="260.03"
      rx="17.68" ry="14.28" fill="#F8A9C6" opacity="0.95"
      transform="rotate(77.19 284.37 260.03)"/><ellipse cx="265.53" cy="254.20"
      rx="17.68" ry="14.28" fill="#F8A9C6" opacity="0.95"
      transform="rotate(137.19 265.53 254.20)"/><ellipse cx="261.16" cy="234.97"
      rx="17.68" ry="14.28" fill="#F8A9C6" opacity="0.95"
      transform="rotate(197.19 261.16 234.97)"/><ellipse cx="275.63" cy="221.57"
      rx="17.68" ry="14.28" fill="#F8A9C6" opacity="0.95"
      transform="rotate(257.19 275.63 221.57)"/><ellipse cx="294.47" cy="227.40"
      rx="17.68" ry="14.28" fill="#F8A9C6" opacity="0.95"
      transform="rotate(317.19 294.47 227.40)"/><ellipse cx="288.95" cy="235.91"
      rx="12.24" ry="10.20" fill="#9AA7DC" opacity="0.9"
      transform="rotate(-28.65 288.95 235.91)"/><ellipse cx="287.42" cy="247.80"
      rx="12.24" ry="10.20" fill="#9AA7DC" opacity="0.9"
      transform="rotate(43.35 287.42 247.80)"/><ellipse cx="275.63" cy="250.02"
      rx="12.24" ry="10.20" fill="#9AA7DC" opacity="0.9"
      transform="rotate(115.35 275.63 250.02)"/><ellipse cx="269.88" cy="239.49"
      rx="12.24" ry="10.20" fill="#9AA7DC" opacity="0.9"
      transform="rotate(187.35 269.88 239.49)"/><ellipse cx="278.12" cy="230.78"
      rx="12.24" ry="10.20" fill="#9AA7DC" opacity="0.9"
      transform="rotate(259.35 278.12 230.78)"/><path d="M273.20 240.80 a6.80 6.80 0 1 1 13.60 0
    a4.42 4.42 0 1 0 -8.84 0" fill="none"
    stroke="url(#ribbon-sq-corporate-navy)" stroke-width="2.55" stroke-linecap="round"/>
      <g fill="none" stroke="url(#ribbon-sq-corporate-navy)" stroke-width="1.2" opacity="0.85">
        <path d="M140 403.2 H420"/>
      </g>
      <path d="M0 0 Q9.60 -6.80 20.00 0 Q9.60 6.80 0 0Z"
    fill="url(#ribbon-sq-corporate-navy)" opacity="0.9" transform="translate(128.00 403.20) rotate(-11.46)"/><path d="M0 0 Q9.60 -6.80 20.00 0 Q9.60 6.80 0 0Z"
    fill="url(#ribbon-sq-corporate-navy)" opacity="0.9" transform="translate(432.00 403.20) rotate(191.46)"/>
<g>
    <rect x="26" y="26" width="508" height="508" rx="8"
          fill="none" stroke="url(#ribbon-sq-corporate-navy)" stroke-width="1.5"/>
    <rect x="33" y="33" width="494" height="494" rx="4"
          fill="none" stroke="#9AA7DC" stroke-width="0.7" opacity="0.5"/>
    <g transform="translate(20 20) scale(1 1)">
      <path d="M2 34 Q2 2 34 2" fill="none" stroke="url(#ribbon-sq-corporate-navy)" stroke-width="1.6"/>
      <path d="M0 0 Q8.16 -5.78 17.00 0 Q8.16 5.78 0 0Z"
    fill="url(#ribbon-sq-corporate-navy)" opacity="0.9" transform="translate(6.00 22.00) rotate(-65.89)"/>
      <path d="M0 0 Q8.16 -5.78 17.00 0 Q8.16 5.78 0 0Z"
    fill="url(#ribbon-sq-corporate-navy)" opacity="0.9" transform="translate(22.00 6.00) rotate(-24.06)"/>
      <path d="M0 0 Q6.24 -4.42 13.00 0 Q6.24 4.42 0 0Z"
    fill="#9AA7DC" opacity="0.75" transform="translate(11.00 11.00) rotate(-45.26)"/>
    </g>
    <g transform="translate(540 20) scale(-1 1)">
      <path d="M2 34 Q2 2 34 2" fill="none" stroke="url(#ribbon-sq-corporate-navy)" stroke-width="1.6"/>
      <path d="M0 0 Q8.16 -5.78 17.00 0 Q8.16 5.78 0 0Z"
    fill="url(#ribbon-sq-corporate-navy)" opacity="0.9" transform="translate(6.00 22.00) rotate(-65.89)"/>
      <path d="M0 0 Q8.16 -5.78 17.00 0 Q8.16 5.78 0 0Z"
    fill="url(#ribbon-sq-corporate-navy)" opacity="0.9" transform="translate(22.00 6.00) rotate(-24.06)"/>
      <path d="M0 0 Q6.24 -4.42 13.00 0 Q6.24 4.42 0 0Z"
    fill="#9AA7DC" opacity="0.75" transform="translate(11.00 11.00) rotate(-45.26)"/>
    </g>
    <g transform="translate(20 540) scale(1 -1)">
      <path d="M2 34 Q2 2 34 2" fill="none" stroke="url(#ribbon-sq-corporate-navy)" stroke-width="1.6"/>
      <path d="M0 0 Q8.16 -5.78 17.00 0 Q8.16 5.78 0 0Z"
    fill="url(#ribbon-sq-corporate-navy)" opacity="0.9" transform="translate(6.00 22.00) rotate(-65.89)"/>
      <path d="M0 0 Q8.16 -5.78 17.00 0 Q8.16 5.78 0 0Z"
    fill="url(#ribbon-sq-corporate-navy)" opacity="0.9" transform="translate(22.00 6.00) rotate(-24.06)"/>
      <path d="M0 0 Q6.24 -4.42 13.00 0 Q6.24 4.42 0 0Z"
    fill="#9AA7DC" opacity="0.75" transform="translate(11.00 11.00) rotate(-45.26)"/>
    </g>
    <g transform="translate(540 540) scale(-1 -1)">
      <path d="M2 34 Q2 2 34 2" fill="none" stroke="url(#ribbon-sq-corporate-navy)" stroke-width="1.6"/>
      <path d="M0 0 Q8.16 -5.78 17.00 0 Q8.16 5.78 0 0Z"
    fill="url(#ribbon-sq-corporate-navy)" opacity="0.9" transform="translate(6.00 22.00) rotate(-65.89)"/>
      <path d="M0 0 Q8.16 -5.78 17.00 0 Q8.16 5.78 0 0Z"
    fill="url(#ribbon-sq-corporate-navy)" opacity="0.9" transform="translate(22.00 6.00) rotate(-24.06)"/>
      <path d="M0 0 Q6.24 -4.42 13.00 0 Q6.24 4.42 0 0Z"
    fill="#9AA7DC" opacity="0.75" transform="translate(11.00 11.00) rotate(-45.26)"/>
    </g>
  </g>
</svg>